<svg xmlns="http://www.w3.org/2000/svg" width="208" height="382" viewBox="0 0 208 382" version="1.1">
	<path d="M 70.572 41.884 C 69.633 43.403, 68.078 89.235, 67.005 147 C 65.906 206.203, 64.007 277.174, 63.501 278 C 63.332 278.275, 60.650 278.344, 57.540 278.154 L 51.886 277.808 47.693 271.478 C 42.771 264.048, 39.776 261.999, 33.846 262.004 C 28.513 262.008, 24.980 264.074, 18.264 271.112 L 13.124 276.500 6.562 276.228 L -0 275.956 -0 278.978 L 0 282 6.865 282 C 14.482 282, 16.025 281.183, 23.281 273.311 C 27.436 268.803, 31.963 266.888, 36.442 267.744 C 38.412 268.121, 40.214 269.971, 43.175 274.660 C 47.588 281.647, 51.411 284.309, 56.329 283.817 C 59.165 283.533, 59.624 283.868, 60.693 287 C 61.350 288.925, 61.913 291.651, 61.944 293.059 C 62.018 296.414, 64.312 299.478, 66.207 298.751 C 67.101 298.408, 67.973 296.226, 68.371 293.338 C 69.194 287.372, 70.659 237.920, 71.609 184 C 72.002 161.725, 72.629 144.625, 73.002 146 C 73.780 148.865, 74.674 176.016, 76.018 237.500 C 77.111 287.526, 78.686 329.901, 79.586 333.488 C 80.032 335.265, 80.894 336, 82.529 336 C 85.343 336, 85.210 336.566, 88.499 310.667 C 89.885 299.759, 91.423 290.084, 91.917 289.167 C 93.349 286.512, 97.247 283.233, 100.500 281.948 C 102.150 281.295, 108.984 280.416, 115.686 279.994 C 131.962 278.968, 133.780 278.022, 141.636 266.500 C 148.934 255.795, 151.442 254.012, 159.215 254.005 C 164.139 254.001, 165.402 254.414, 168.335 256.989 C 170.208 258.634, 172.373 261.221, 173.146 262.739 C 177.471 271.229, 181.613 277.366, 184.509 279.575 C 187.585 281.921, 188.412 282.055, 198.142 281.786 L 208.500 281.500 208.797 278.500 L 209.094 275.500 198.951 275.818 C 186.809 276.200, 187.115 276.393, 179.541 263.531 C 176.615 258.564, 173.368 253.730, 172.324 252.788 C 169.410 250.159, 163.484 248, 159.181 248 C 150.409 248, 144.735 251.929, 137.521 263 C 132.004 271.466, 129.973 273.159, 124.791 273.609 C 100.061 275.759, 97.169 276.389, 92.464 280.655 C 88.750 284.022, 86 288.240, 86 290.570 C 86 293.289, 84.160 298.493, 83.450 297.783 C 82.837 297.170, 81.497 248.580, 79 136.500 C 78.473 112.850, 77.768 86.075, 77.433 77 C 77.098 67.925, 76.702 56.797, 76.552 52.272 C 76.285 44.152, 75.134 41, 72.437 41 C 71.711 41, 70.872 41.398, 70.572 41.884" stroke="none" fill="#000000" fill-rule="evenodd"/>
</svg>